PathFileType	4	(X/Y/Z)	 1.9Hzlow3min.trc
DataRate	CameraRate	NumFrames	NumMarkers	Units	OrigDataRate	OrigDataStartFrame	OrigNumFrames
200	200	11	35	m	200	251	1000
Frame#	Time	C7			LSH			RSH			MAN			RASI			LASI			HIPR			HIPL			RPSI			LPSI			COX			RTHI1			RTHI2			RTHI3			RTHI4			RSHA1			RSHA2			RSHA3			RSHA4			RHEEL			RMET5			RMET1			RTOE			LTHI1			LTHI2			LTHI3			LTHI4			LSHA1			LSHA2			LSHA3			LSHA4			LHEEL			LMET5			LMET1			LTOE			
		X1	Y1	Z1	X2	Y2	Z2	X3	Y3	Z3	X4	Y4	Z4	X5	Y5	Z5	X6	Y6	Z6	X7	Y7	Z7	X8	Y8	Z8	X9	Y9	Z9	X10	Y10	Z10	X11	Y11	Z11	X12	Y12	Z12	X13	Y13	Z13	X14	Y14	Z14	X15	Y15	Z15	X16	Y16	Z16	X17	Y17	Z17	X18	Y18	Z18	X19	Y19	Z19	X20	Y20	Z20	X21	Y21	Z21	X22	Y22	Z22	X23	Y23	Z23	X24	Y24	Z24	X25	Y25	Z25	X26	Y26	Z26	X27	Y27	Z27	X28	Y28	Z28	X29	Y29	Z29	X30	Y30	Z30	X31	Y31	Z31	X32	Y32	Z32	X33	Y33	Z33	X34	Y34	Z34	X35	Y35	Z35	
251	1.2550	-0.314892	1.691264	-0.566530	-0.266492	1.685061	-0.786923	-0.241794	1.686445	-0.362848	-0.158701	1.649232	-0.572915	-0.141963	1.189106	-0.446293	-0.130432	1.181396	-0.659164	-0.194718	1.246425	-0.402326	-0.190000	1.240001	-0.720212	-0.322188	1.224471	-0.502272	-0.323230	1.217389	-0.617103	-0.329758	1.229788	-0.556376	-0.247558	0.932273	-0.360077	-0.235096	0.875538	-0.345998	-0.171395	0.888336	-0.338978	-0.176052	0.947814	-0.354429	-0.355541	0.466811	-0.356796	-0.347789	0.425753	-0.365120	-0.292662	0.438086	-0.342231	-0.302354	0.477077	-0.338265	-0.407033	0.160087	-0.429224	-0.275150	0.043591	-0.342451	-0.227209	0.049867	-0.415020	-0.202460	0.040509	-0.404731	-0.195465	0.925031	-0.772624	-0.182148	0.865291	-0.779476	-0.120342	0.871236	-0.762623	-0.124926	0.930783	-0.753817	-0.271544	0.460886	-0.788203	-0.285084	0.422718	-0.787493	-0.224654	0.408435	-0.776482	-0.218923	0.452268	-0.778861	-0.380776	0.153092	-0.731467	-0.237513	0.036824	-0.795708	-0.189914	0.039296	-0.717604	-0.165238	0.028768	-0.722861	
252	1.2600	-0.315111	1.694426	-0.566410	-0.266896	1.688367	-0.786532	-0.242227	1.690055	-0.362979	-0.159021	1.652740	-0.572809	-0.141304	1.192341	-0.446042	-0.129838	1.184629	-0.658835	-0.194037	1.249832	-0.402127	-0.189274	1.243287	-0.720043	-0.321461	1.228179	-0.502041	-0.322491	1.220960	-0.616930	-0.328957	1.233513	-0.556190	-0.247561	0.935702	-0.359880	-0.235287	0.878914	-0.345874	-0.171521	0.891487	-0.338825	-0.175997	0.951023	-0.354179	-0.355527	0.468953	-0.356824	-0.347414	0.427965	-0.364864	-0.292469	0.440827	-0.341948	-0.302469	0.479708	-0.338170	-0.405301	0.162330	-0.427997	-0.273122	0.045743	-0.342050	-0.226086	0.052257	-0.414604	-0.201266	0.043427	-0.404191	-0.195949	0.928547	-0.772718	-0.182852	0.868761	-0.779620	-0.120966	0.874498	-0.762967	-0.125332	0.934049	-0.754133	-0.272007	0.463734	-0.788092	-0.285204	0.425462	-0.787456	-0.224561	0.411624	-0.776987	-0.219229	0.455537	-0.779226	-0.378346	0.155922	-0.732048	-0.236259	0.037995	-0.795550	-0.189272	0.039829	-0.717711	-0.164839	0.028983	-0.723132	
253	1.2650	-0.315317	1.697339	-0.566282	-0.267267	1.691413	-0.786149	-0.242645	1.693389	-0.363089	-0.159318	1.655978	-0.572687	-0.140675	1.195266	-0.445808	-0.129295	1.187590	-0.658512	-0.193331	1.252949	-0.401936	-0.188577	1.246311	-0.719886	-0.320763	1.231614	-0.501812	-0.321796	1.224286	-0.616770	-0.328204	1.236988	-0.556000	-0.247561	0.938862	-0.359731	-0.235470	0.882018	-0.345792	-0.171640	0.894389	-0.338695	-0.175945	0.953986	-0.353965	-0.355441	0.470889	-0.356809	-0.346993	0.429960	-0.364597	-0.292208	0.443307	-0.341669	-0.302482	0.482071	-0.338082	-0.403813	0.164279	-0.426815	-0.271015	0.048038	-0.341511	-0.224585	0.054992	-0.414118	-0.199613	0.046691	-0.403707	-0.196445	0.931783	-0.772831	-0.183567	0.871956	-0.779775	-0.121596	0.877483	-0.763350	-0.125750	0.937041	-0.754484	-0.272376	0.466368	-0.787972	-0.285244	0.427990	-0.787408	-0.224410	0.414583	-0.777471	-0.219457	0.458565	-0.779571	-0.376077	0.158542	-0.732679	-0.234852	0.039327	-0.795353	-0.188573	0.040483	-0.717819	-0.164347	0.029309	-0.723427	
254	1.2700	-0.315512	1.699995	-0.566144	-0.267603	1.694195	-0.785779	-0.243050	1.696441	-0.363177	-0.159595	1.658943	-0.572546	-0.140076	1.197933	-0.445600	-0.128805	1.190283	-0.658207	-0.192608	1.255766	-0.401764	-0.187914	1.249078	-0.719746	-0.320109	1.234781	-0.501583	-0.321151	1.227360	-0.616620	-0.327504	1.240194	-0.555811	-0.247561	0.941748	-0.359636	-0.235637	0.884856	-0.345744	-0.171754	0.897043	-0.338591	-0.175896	0.956689	-0.353789	-0.355244	0.472629	-0.356586	-0.346540	0.431764	-0.364313	-0.291885	0.445542	-0.341364	-0.302377	0.484137	-0.337829	-0.402546	0.165926	-0.425683	-0.268800	0.050463	-0.340867	-0.222733	0.058002	-0.413566	-0.197545	0.050199	-0.403236	-0.196946	0.934729	-0.772954	-0.184287	0.874860	-0.779948	-0.122228	0.880191	-0.763773	-0.126173	0.939756	-0.754872	-0.272631	0.468777	-0.787857	-0.285185	0.430302	-0.787340	-0.224182	0.417313	-0.777912	-0.219586	0.461346	-0.779891	-0.374010	0.160919	-0.733333	-0.233315	0.040819	-0.795116	-0.187787	0.041301	-0.717929	-0.163722	0.029798	-0.723769	
255	1.2750	-0.315692	1.702391	-0.566000	-0.267893	1.696716	-0.785430	-0.243433	1.699202	-0.363240	-0.159840	1.661645	-0.572393	-0.139477	1.200212	-0.445440	-0.128369	1.192710	-0.657931	-0.191887	1.258273	-0.401608	-0.187294	1.251589	-0.719628	-0.319499	1.237638	-0.501363	-0.320559	1.230175	-0.616483	-0.326857	1.243119	-0.555628	-0.247557	0.944362	-0.359577	-0.235792	0.887414	-0.345746	-0.171861	0.899460	-0.338525	-0.175853	0.959132	-0.353654	-0.354992	0.474216	-0.356275	-0.346069	0.433408	-0.363989	-0.291510	0.447541	-0.341022	-0.302181	0.485992	-0.337531	-0.401449	0.167265	-0.424633	-0.266471	0.052964	-0.340155	-0.220621	0.061180	-0.412929	-0.195156	0.053834	-0.402725	-0.197444	0.937378	-0.773080	-0.184998	0.877481	-0.780134	-0.122841	0.882621	-0.764228	-0.126588	0.942197	-0.755296	-0.272754	0.470960	-0.787763	-0.285013	0.432389	-0.787282	-0.223860	0.419812	-0.778292	-0.219599	0.463878	-0.780179	-0.372177	0.163038	-0.733995	-0.231689	0.042452	-0.794857	-0.186891	0.042318	-0.718038	-0.162907	0.030505	-0.724131	
256	1.2800	-0.315858	1.704522	-0.565854	-0.268142	1.698972	-0.785105	-0.243791	1.701678	-0.363274	-0.160052	1.664082	-0.572231	-0.138921	1.202224	-0.445312	-0.127987	1.194873	-0.657695	-0.191196	1.260476	-0.401464	-0.186723	1.253848	-0.719527	-0.318937	1.240204	-0.501171	-0.320025	1.232722	-0.616360	-0.326274	1.245749	-0.555451	-0.247550	0.946702	-0.359556	-0.235928	0.889706	-0.345782	-0.171960	0.901622	-0.338491	-0.175814	0.961308	-0.353557	-0.354716	0.475618	-0.356011	-0.345588	0.434905	-0.363627	-0.291094	0.449321	-0.340640	-0.301912	0.487707	-0.337127	-0.400465	0.168306	-0.423681	-0.264064	0.055476	-0.339396	-0.218341	0.064408	-0.412218	-0.192586	0.057458	-0.402123	-0.197929	0.939721	-0.773204	-0.185685	0.879789	-0.780333	-0.123422	0.884781	-0.764707	-0.126982	0.944358	-0.755751	-0.272725	0.472918	-0.787710	-0.284723	0.434259	-0.787248	-0.223447	0.422063	-0.778600	-0.219477	0.466155	-0.780426	-0.370594	0.164890	-0.734641	-0.230018	0.044211	-0.794609	-0.185865	0.043564	-0.718155	-0.161887	0.031496	-0.724501	
257	1.2850	-0.316005	1.706389	-0.565710	-0.268350	1.700965	-0.784813	-0.244120	1.703870	-0.363278	-0.160221	1.666255	-0.572065	-0.138405	1.203976	-0.445216	-0.127652	1.196780	-0.657501	-0.190554	1.262394	-0.401331	-0.186208	1.255856	-0.719436	-0.318415	1.242448	-0.500997	-0.319552	1.234995	-0.616244	-0.325757	1.248077	-0.555278	-0.247543	0.948763	-0.359563	-0.236040	0.891734	-0.345839	-0.172050	0.903522	-0.338475	-0.175781	0.963224	-0.353497	-0.354354	0.476978	-0.355596	-0.345109	0.436278	-0.363233	-0.290648	0.450914	-0.340227	-0.301574	0.489292	-0.336703	-0.399542	0.169072	-0.422839	-0.261624	0.057922	-0.338620	-0.215999	0.067559	-0.411437	-0.189965	0.060972	-0.401430	-0.198384	0.941756	-0.773314	-0.186327	0.881798	-0.780513	-0.123946	0.886671	-0.765195	-0.127335	0.946252	-0.756227	-0.272533	0.474644	-0.787706	-0.284310	0.435911	-0.787252	-0.222945	0.424062	-0.778825	-0.219218	0.468158	-0.780620	-0.369263	0.166459	-0.735239	-0.228345	0.046071	-0.794419	-0.184689	0.045045	-0.718294	-0.160664	0.032856	-0.724875	
258	1.2900	-0.316130	1.707995	-0.565569	-0.268509	1.702695	-0.784555	-0.244411	1.705780	-0.363251	-0.160349	1.668165	-0.571900	-0.137929	1.205484	-0.445145	-0.127362	1.198436	-0.657355	-0.189976	1.264032	-0.401214	-0.185756	1.257619	-0.719354	-0.317941	1.244414	-0.500837	-0.319137	1.236982	-0.616136	-0.325305	1.250088	-0.555121	-0.247537	0.950544	-0.359597	-0.236129	0.893485	-0.345912	-0.172128	0.905166	-0.338486	-0.175757	0.964882	-0.353467	-0.353935	0.478238	-0.355081	-0.344619	0.437551	-0.362786	-0.290189	0.452341	-0.339802	-0.301191	0.490720	-0.336250	-0.398633	0.169617	-0.422106	-0.259229	0.060213	-0.337823	-0.213682	0.070524	-0.410598	-0.187400	0.064286	-0.400650	-0.198793	0.943486	-0.773404	-0.186899	0.883508	-0.780672	-0.124399	0.888294	-0.765682	-0.127635	0.947874	-0.756719	-0.272177	0.476142	-0.787759	-0.283787	0.437350	-0.787299	-0.222363	0.425796	-0.778957	-0.218824	0.469883	-0.780751	-0.368182	0.167733	-0.735748	-0.226697	0.047976	-0.794303	-0.183362	0.046750	-0.718475	-0.159234	0.034635	-0.725202	
259	1.2950	-0.316228	1.709344	-0.565431	-0.268615	1.704163	-0.784333	-0.244659	1.707405	-0.363193	-0.160437	1.669812	-0.571737	-0.137508	1.206717	-0.445094	-0.127111	1.199847	-0.657256	-0.189482	1.265403	-0.401102	-0.185371	1.259141	-0.719283	-0.317538	1.246090	-0.500685	-0.318785	1.238699	-0.616053	-0.324926	1.251799	-0.554987	-0.247530	0.952048	-0.359640	-0.236197	0.894961	-0.345992	-0.172188	0.906557	-0.338519	-0.175740	0.966289	-0.353463	-0.353524	0.479383	-0.354665	-0.344123	0.438714	-0.362284	-0.289724	0.453609	-0.339386	-0.300788	0.492046	-0.335903	-0.397708	0.169975	-0.421476	-0.256958	0.062281	-0.336998	-0.211466	0.073222	-0.409702	-0.184973	0.067308	-0.399786	-0.199142	0.944918	-0.773468	-0.187386	0.884919	-0.780794	-0.124763	0.889652	-0.766152	-0.127868	0.949235	-0.757218	-0.271667	0.477430	-0.787865	-0.283169	0.438591	-0.787406	-0.221721	0.427253	-0.778997	-0.218306	0.471331	-0.780810	-0.367329	0.168705	-0.736138	-0.225081	0.049904	-0.794286	-0.181896	0.048626	-0.718721	-0.157605	0.036714	-0.725541	
260	1.3000	-0.316303	1.710435	-0.565292	-0.268671	1.705371	-0.784144	-0.244861	1.708750	-0.363107	-0.160489	1.671191	-0.571575	-0.137175	1.207830	-0.445045	-0.126892	1.201021	-0.657200	-0.189075	1.266523	-0.400994	-0.185053	1.260429	-0.719215	-0.317212	1.247447	-0.500555	-0.318493	1.240142	-0.615994	-0.324624	1.253206	-0.554878	-0.247522	0.953281	-0.359687	-0.236237	0.896179	-0.346073	-0.172222	0.907703	-0.338569	-0.175725	0.967453	-0.353481	-0.353080	0.480433	-0.354233	-0.343615	0.439743	-0.361772	-0.289253	0.454707	-0.338989	-0.300358	0.493174	-0.335562	-0.396748	0.170201	-0.420933	-0.254850	0.064082	-0.336147	-0.209382	0.075586	-0.408778	-0.182730	0.069988	-0.398858	-0.199413	0.946061	-0.773505	-0.187767	0.886025	-0.780859	-0.125023	0.890755	-0.766595	-0.128021	0.950343	-0.757700	-0.271026	0.478511	-0.788010	-0.282484	0.439654	-0.787555	-0.221047	0.428437	-0.778957	-0.217683	0.472504	-0.780798	-0.366673	0.169380	-0.736387	-0.223506	0.051833	-0.794364	-0.180313	0.050602	-0.719061	-0.155848	0.038971	-0.725980	
261	1.3050	-0.316353	1.711278	-0.565148	-0.268672	1.706323	-0.783981	-0.245013	1.709810	-0.362992	-0.160507	1.672300	-0.571410	-0.136882	1.208705	-0.445014	-0.126700	1.201961	-0.657181	-0.188747	1.267403	-0.400900	-0.184807	1.261482	-0.719149	-0.316948	1.248473	-0.500443	-0.318261	1.241301	-0.615955	-0.324392	1.254314	-0.554793	-0.247511	0.954243	-0.359726	-0.236250	0.897129	-0.346154	-0.172236	0.908606	-0.338636	-0.175714	0.968382	-0.353518	-0.352595	0.481369	-0.353728	-0.343107	0.440625	-0.361275	-0.288772	0.455640	-0.338622	-0.299897	0.494139	-0.335290	-0.395757	0.170324	-0.420449	-0.252910	0.065593	-0.335288	-0.207462	0.077578	-0.407836	-0.180695	0.072295	-0.397900	-0.199588	0.946929	-0.773507	-0.188023	0.886878	-0.780863	-0.125166	0.891614	-0.766997	-0.128084	0.951215	-0.758148	-0.270286	0.479395	-0.788169	-0.281754	0.440542	-0.787719	-0.220363	0.429363	-0.778845	-0.216988	0.473409	-0.780719	-0.366175	0.169756	-0.736477	-0.221972	0.053737	-0.794539	-0.178651	0.052589	-0.719518	-0.154001	0.041301	-0.726557	
